<svg xmlns="http://www.w3.org/2000/svg" width="480" height="480" fill="none"><path fill="#1a1a1a" d="M0 100C0 44.7715 44.7715 0 100 0h280c55.228 0 100 44.7715 100 100v280c0 55.228-44.772 100-100 100H100C44.7715 480 0 435.228 0 380z"/><path fill="#c7c0b2" d="M165.72 299.171 132.124 480H100C44.7715 480 0 435.228 0 380V265.461z"/><path fill="#c7c0b2" d="M0 180.021c4.45365 7.605 11.9478 13.194 21.0293 14.676l237.9057 38.841L222.184 480h-28.737l37.106-199.725c3.172-17.073-7.485-33.605-23.802-36.924L0 201.295z"/><path fill="#c7c0b2" fill-rule="evenodd" d="M380 0c55.228 0 100 44.7715 100 100v280c0 55.228-44.772 100-100 100h-96.892l39.943-267.868c2.562-17.186-8.674-33.291-25.098-35.973L30.3096 132.463C17.9417 130.444 6.15973 136.614 0 147.123V100C0 44.7715 44.7715 0 100 0zM119.902 74.25c-16.492-2.173-31.5457 10.0549-33.6237 27.312-2.0775 17.256 9.6089 33.008 26.1007 35.181l238.896 31.487-30.091 249.975c-2.077 17.257 9.608 33.009 26.1 35.183 16.493 2.173 31.547-10.055 33.624-27.312l33.853-281.221c2.077-17.257-9.609-33.009-26.101-35.182z" clip-rule="evenodd"/><path fill="#c7c0b2" d="M165.72 299.171 132.124 480H100C44.7715 480 0 435.228 0 380V265.461z"/><path fill="#c7c0b2" d="M0 180.021c4.45365 7.605 11.9478 13.194 21.0293 14.676l237.9057 38.841L222.184 480h-28.737l37.106-199.725c3.172-17.073-7.485-33.605-23.802-36.924L0 201.295z"/><path fill="#c7c0b2" fill-rule="evenodd" d="M380 0c55.228 0 100 44.7715 100 100v280c0 55.228-44.772 100-100 100h-96.892l39.943-267.868c2.562-17.186-8.674-33.291-25.098-35.973L30.3096 132.463C17.9417 130.444 6.15973 136.614 0 147.123V100C0 44.7715 44.7715 0 100 0zM119.902 74.25c-16.492-2.173-31.5457 10.0549-33.6237 27.312-2.0775 17.256 9.6089 33.008 26.1007 35.181l238.896 31.487-30.091 249.975c-2.077 17.257 9.608 33.009 26.1 35.183 16.493 2.173 31.547-10.055 33.624-27.312l33.853-281.221c2.077-17.257-9.609-33.009-26.101-35.182z" clip-rule="evenodd"/></svg>